# xmcd CD database file
#
# Track frame offsets:
#	150
#	12348
#	25499
#	38659
#	51275
#	63524
#	75060
#	87791
#	99362
#	112317
#	125820
#	139801
#	154286
#	167632
#	179493
#	190745
#	202379
#	213645
#	226517
#	240251
#	252197
#	266153
#	278244
#	292355
#	306718
#	317422
#
# Disc length: 4389 seconds
#
# Revision: 1
# Processed by: cddbd v1.5.2PL0 Copyright (c) Steve Scherf et al.
# Submitted via: CDex 1.51
#
DISCID=8211231a
DTITLE=Sons Of The Pioneers - Cigareets, Whusky...and Cool, Cool Water
DYEAR=2002
DGENRE=Cowboy Songs
TTITLE0=Tumbling Tumbleweeds
TTITLE1=Cigareets, Whusky and Wild, Wild Women
TTITLE2=Cool Water
TTITLE3=Song of the Bandit
TTITLE4=The Timber Trail
TTITLE5=Stars and Stripes on Iwo Jima
TTITLE6=No One to Cry To
TTITLE7=Cowboy Camp Meetin
TTITLE8=Out California Way
TTITLE9=The Everlasting Hills of Oklahoma
TTITLE10=Chant of the Wanderer
TTITLE11=Blue Prarie
TTITLE12=Teardrops in My Heart
TTITLE13=Cowboy Country
TTITLE14=Out in Pioneer Town
TTITLE15=Serenade to a Coyote
TTITLE16=Red River Valley
TTITLE17=Blue Shadows on the Trail
TTITLE18=Pecos Bill
TTITLE19=Home on the Range
TTITLE20=A Room Full of Roses
TTITLE21=Santa Fe, New Mexico
TTITLE22=Lie Low, Little Doggies
TTITLE23=Wind
TTITLE24=Wagons West
TTITLE25=The Last Roundup
EXTD=YEAR: 2002
EXTT0=
EXTT1=
EXTT2=
EXTT3=
EXTT4=
EXTT5=
EXTT6=
EXTT7=
EXTT8=
EXTT9=
EXTT10=
EXTT11=
EXTT12=
EXTT13=
EXTT14=
EXTT15=
EXTT16=
EXTT17=
EXTT18=
EXTT19=
EXTT20=
EXTT21=
EXTT22=
EXTT23=
EXTT24=
EXTT25=
PLAYORDER=
